<svg xmlns="http://www.w3.org/2000/svg" viewBox="0 0 32 32" fill="none"><rect x="1.25" y="1.25" width="29.5" height="29.5" rx="7.25" fill="#F7F8F8" stroke="#DCE2E0" stroke-width="1.1"/><g stroke="#65716E" stroke-width="1.6" stroke-linecap="round" stroke-linejoin="round"><path d="m10.8 5.2-5.4 4.5 2 5.2 2.4-1.2L8.9 27h6.4V14.8L10.8 5.2Zm10.4 0 5.4 4.5-2 5.2-2.4-1.2.9 13.3h-6.4V14.8l4.5-9.6ZM10.8 5.2l5.2 9.6 5.2-9.6M8.8 10.7l6.5 4.1M23.2 10.7l-6.5 4.1"/><path d="m10.2 18 2-1.7 2 1.7-2 1.7-2-1.7Zm7.6 0 2-1.7 2 1.7-2 1.7-2-1.7Zm-7.6 5 2-1.7 2 1.7-2 1.7-2-1.7Zm7.6 0 2-1.7 2 1.7-2 1.7-2-1.7" stroke-width="1.1"/></g></svg>
