<svg xmlns="http://www.w3.org/2000/svg" viewBox="0 0 32 32" fill="none"><rect x="1.25" y="1.25" width="29.5" height="29.5" rx="7.25" fill="#F7F8F8" stroke="#DCE2E0" stroke-width="1.1"/><g stroke="#65716E" stroke-width="1.6" stroke-linecap="round" stroke-linejoin="round"><path d="M18.5 8.8C12.7 6.5 7 9.8 7 15c0 4.3 3.4 7.4 7.6 7.4 3.7 0 6.5-2.4 6.5-5.7 0-2.6-2.1-4.6-4.8-4.6-2.2 0-3.9 1.5-3.9 3.5 0 1.6 1.2 2.7 2.8 2.7 1.2 0 2.1-.8 2.1-1.8M20.8 17.6h6.4v5.1h-6.4zM22.3 19.2v1.7M24.3 19.2v1M26.3 19.2v1.7M27.2 22.7l1.2 2M7.4 11.6l2.7 1M6.9 15h2.8M7.7 18.5l2.6-1"/></g></svg>
